<svg width="1440" height="704" viewBox="0 0 1440 704" fill="none" xmlns="http://www.w3.org/2000/svg">
<path fill-rule="evenodd" clip-rule="evenodd" d="M-160 401L-76.5417 437C6.91667 473 173.833 545 340.75 581C507.667 617 674.583 617 841.5 581C1008.42 545 1175.33 473 1342.25 488C1509.17 502 1676.08 603 1759.54 653L1843 704V358H1759.54C1676.08 358 1509.17 358 1342.25 358C1175.33 358 1008.42 358 841.5 358C674.583 358 507.667 358 340.75 358C173.833 358 6.91667 358 -76.5417 358H-160V401Z" fill="#F9EDE2"/>
<path fill-rule="evenodd" clip-rule="evenodd" d="M0 0L81.0289 52.5067C159.743 105.013 319.486 210.027 479.228 217.187C638.971 224.347 801.029 136.04 960.772 90.6933C1120.51 45.3467 1280.26 45.3467 1358.97 45.3467H1440V358H1358.97C1280.26 358 1120.51 358 960.772 358C801.029 358 638.971 358 479.228 358C319.486 358 159.743 358 81.0289 358H0V0Z" fill="#F9EDE2"/>
</svg>
