<svg width="1440" height="348" viewBox="0 0 1440 348" fill="none" xmlns="http://www.w3.org/2000/svg">
<path fill-rule="evenodd" clip-rule="evenodd" d="M0 150.333H60C120 150.333 240 150.333 360 120.016C480 91.0757 600 31.818 720 60.7578C840 91.0757 960 209.591 1080 268.849C1200 329.485 1320 329.485 1380 329.485H1440V448H1380C1320 448 1200 448 1080 448C960 448 840 448 720 448C600 448 480 448 360 448C240 448 120 448 60 448H0V150.333Z" fill="#FFC895" fill-opacity="0.88"/>
<path fill-rule="evenodd" clip-rule="evenodd" d="M0 25L60 68.0751C120 111.15 240 197.301 360 206.873C480 215.249 600 145.85 720 129.098C840 111.15 960 145.85 1080 137.474C1200 129.098 1320 77.6474 1380 51.3237L1440 25V439H1380C1320 439 1200 439 1080 439C960 439 840 439 720 439C600 439 480 439 360 439C240 439 120 439 60 439H0V25Z" fill="#FCDEC2" fill-opacity="0.65"/>
<path fill-rule="evenodd" clip-rule="evenodd" d="M0 342.265L60 323.823C120 306.611 240 270.956 360 279.562C480 288.169 600 342.265 720 288.169C840 235.301 960 76.6993 1080 22.6024C1200 -30.2649 1320 22.6025 1380 49.6509L1440 76.6993V448H1380C1320 448 1200 448 1080 448C960 448 840 448 720 448C600 448 480 448 360 448C240 448 120 448 60 448H0V342.265Z" fill="#F9EDE2" fill-opacity="0.61"/>
</svg>
